<svg width="740" height="518" viewBox="0 0 740 518" fill="none" xmlns="http://www.w3.org/2000/svg">
<path d="M267.621 304.826V285.542H223.773V265.443L254.62 209.765H283.937V270.061H298.723V285.542H283.937V304.826H267.621ZM239.324 270.061H267.621V220.9H265.327L239.324 267.888V270.061Z" fill="#3E5163"/>
<path d="M342.793 306.727C332.256 306.727 323.801 303.649 317.427 297.493C311.054 291.246 307.867 281.83 307.867 269.246V245.345C307.867 233.122 311.054 223.843 317.427 217.505C323.801 211.077 332.256 207.863 342.793 207.863C353.415 207.863 361.87 211.077 368.158 217.505C374.532 223.843 377.718 233.122 377.718 245.345V269.246C377.718 281.83 374.532 291.246 368.158 297.493C361.87 303.649 353.415 306.727 342.793 306.727ZM342.793 291.246C349.166 291.246 353.84 289.39 356.814 285.678C359.873 281.966 361.403 276.67 361.403 269.789V244.53C361.403 237.559 359.703 232.308 356.304 228.777C352.99 225.155 348.486 223.345 342.793 223.345C336.929 223.345 332.341 225.201 329.027 228.913C325.798 232.625 324.183 237.83 324.183 244.53V269.789C324.183 276.941 325.713 282.328 328.772 285.95C331.916 289.48 336.59 291.246 342.793 291.246Z" fill="#3E5163"/>
<path d="M431.309 304.826V285.542H387.461V265.443L418.308 209.765H447.625V270.061H462.411V285.542H447.625V304.826H431.309ZM403.012 270.061H431.309V220.9H429.015L403.012 267.888V270.061Z" fill="#3E5163"/>
<path d="M84.0257 281.713L121.801 281.713C121.801 331.058 161.952 371.217 211.286 371.217L211.286 409C141.102 409 84.0257 351.885 83.999 281.713L84.0257 281.713Z" fill="#1D343F"/>
<path d="M84 281.716C84 286.73 92.4622 290.794 102.901 290.794C113.34 290.794 121.802 286.73 121.802 281.716C121.802 276.702 113.34 272.637 102.901 272.637C92.4622 272.637 84 276.702 84 281.716Z" fill="#3E5163"/>
<path d="M202.212 390.094C202.212 400.535 206.276 408.999 211.289 408.999C216.301 408.999 220.365 400.535 220.365 390.094C220.365 379.653 216.301 371.189 211.289 371.189C206.276 371.189 202.212 379.653 202.212 390.094Z" fill="#3E5163"/>
<path d="M476.711 398.773H635.614C651.863 398.773 661.992 381.032 653.868 366.902L574.416 228.688C566.292 214.558 546.033 214.558 537.909 228.688L458.457 366.902C450.333 381.032 460.462 398.773 476.711 398.773Z" fill="#1D343F"/>
<path d="M565.592 339.501C565.592 344.708 561.371 348.93 556.163 348.93V348.93C550.956 348.93 546.735 344.708 546.735 339.501L546.735 277.362C546.735 272.155 550.956 267.934 556.163 267.934V267.934C561.371 267.934 565.592 272.155 565.592 277.362L565.592 339.501Z" fill="#3E5163"/>
<path d="M565.591 364.505C565.591 369.667 561.37 373.851 556.163 373.851C550.956 373.851 546.734 369.667 546.734 364.505C546.734 359.344 550.956 355.16 556.163 355.16C561.37 355.16 565.591 359.344 565.591 364.505Z" fill="#3E5163"/>
<path d="M256.531 109L90.6367 109V149.909H256.531V109Z" fill="#1D343F"/>
<path d="M91.9639 149.909C96.3617 149.909 99.9268 140.752 99.9268 129.455C99.9268 118.158 96.3617 109 91.9639 109C87.5661 109 84.001 118.158 84.001 129.455C84.001 140.752 87.5661 149.909 91.9639 149.909Z" fill="#3E5163"/>
<path d="M257.857 149.909C262.255 149.909 265.82 140.752 265.82 129.455C265.82 118.158 262.255 109 257.857 109C253.46 109 249.895 118.158 249.895 129.455C249.895 140.752 253.46 149.909 257.857 149.909Z" fill="#3E5163"/>
</svg>
