<svg width="741" height="519" viewBox="0 0 741 519" fill="none" xmlns="http://www.w3.org/2000/svg">
<path d="M245.174 209.039C242.003 196.349 249.618 183.136 262.183 179.527L484.953 115.535C497.518 111.926 510.276 119.287 513.447 131.976L551.482 284.149C554.653 296.838 547.038 310.051 534.473 313.661L311.703 377.653C299.138 381.262 286.38 373.901 283.209 361.211L245.174 209.039Z" fill="#132730"/>
<path d="M232.067 187.947C232.067 174.867 242.665 164.263 255.738 164.263H539.784C552.857 164.263 563.454 174.867 563.454 187.947V385.316C563.454 398.396 552.857 409 539.784 409H255.738C242.665 409 232.067 398.396 232.067 385.316V187.947Z" fill="#3E5163"/>
<path d="M263.627 207.685C263.627 201.145 268.926 195.843 275.462 195.843H520.057C526.594 195.843 531.893 201.145 531.893 207.685V365.579C531.893 372.12 526.594 377.422 520.057 377.422H275.462C268.926 377.422 263.627 372.12 263.627 365.579V207.685Z" fill="#3E5163"/>
<path d="M425.376 278.736C425.376 265.655 435.974 255.052 449.046 255.052H571.344C573.523 255.052 575.289 256.819 575.289 258.999V314.262C575.289 316.442 573.523 318.209 571.344 318.209H449.046C435.974 318.209 425.376 307.606 425.376 294.525V278.736Z" fill="#132730"/>
<path d="M464.827 286.631C464.827 293.172 459.528 298.473 452.991 298.473C446.455 298.473 441.156 293.172 441.156 286.631C441.156 280.091 446.455 274.789 452.991 274.789C459.528 274.789 464.827 280.091 464.827 286.631Z" fill="#3E5163"/>
<path d="M322.803 187.947C322.803 231.549 287.478 266.895 243.902 266.895C200.325 266.895 165 231.549 165 187.947C165 144.346 200.325 109 243.902 109C287.478 109 322.803 144.346 322.803 187.947Z" fill="#132730"/>
<path d="M253.186 197.236C253.186 202.366 249.03 206.524 243.903 206.524V206.524C238.776 206.524 234.62 202.366 234.62 197.236L234.62 146.152C234.62 141.023 238.776 136.865 243.903 136.865V136.865C249.03 136.865 253.186 141.023 253.186 146.152L253.186 197.236Z" fill="#3E5163"/>
<path d="M253.183 229.743C253.183 234.872 249.027 239.03 243.901 239.03C238.774 239.03 234.618 234.872 234.618 229.743C234.618 224.613 238.774 220.455 243.901 220.455C249.027 220.455 253.183 224.613 253.183 229.743Z" fill="#3E5163"/>
</svg>
