<svg width="741" height="519" viewBox="0 0 741 519" fill="none" xmlns="http://www.w3.org/2000/svg">
<g clip-path="url(#clip0_403_17002)">
<path d="M151.027 277.22L190.274 277.22C190.274 328.306 231.988 369.883 283.244 369.883L283.244 408.999C210.327 408.999 151.027 349.869 151 277.22L151.027 277.22Z" fill="#132730"/>
<path d="M151 277.222C151 282.413 159.792 286.621 170.637 286.621C181.483 286.621 190.274 282.413 190.274 277.222C190.274 272.032 181.483 267.823 170.637 267.823C159.792 267.823 151 272.032 151 277.222Z" fill="#40566A"/>
<path d="M273.815 389.426C273.815 400.235 278.037 408.998 283.246 408.998C288.454 408.998 292.676 400.235 292.676 389.426C292.676 378.616 288.454 369.854 283.246 369.854C278.037 369.854 273.815 378.616 273.815 389.426Z" fill="#40566A"/>
<ellipse cx="358.2" cy="251.941" rx="129.279" ry="128.824" fill="#1D343F"/>
<rect x="373.409" y="282.253" width="30.4185" height="113.668" rx="8" transform="rotate(-180 373.409 282.253)" fill="#40566A"/>
<ellipse cx="358.199" cy="320.142" rx="15.2093" ry="15.1557" fill="#40566A"/>
<path d="M330.251 109L157.896 109V151.354H330.251V109Z" fill="#132730"/>
<path d="M159.274 151.353C163.843 151.353 167.547 141.872 167.547 130.177C167.547 118.481 163.843 109 159.274 109C154.705 109 151.001 118.481 151.001 130.177C151.001 141.872 154.705 151.353 159.274 151.353Z" fill="#40566A"/>
<path d="M331.629 151.354C336.198 151.354 339.902 141.873 339.902 130.177C339.902 118.482 336.198 109 331.629 109C327.059 109 323.355 118.482 323.355 130.177C323.355 141.873 327.059 151.354 331.629 151.354Z" fill="#40566A"/>
<path fill-rule="evenodd" clip-rule="evenodd" d="M527.418 355.217L505.821 333.695L518.164 321.395L539.762 342.917L527.418 355.217Z" fill="#132730"/>
<ellipse opacity="0.7" cx="485.455" cy="301.101" rx="37.8222" ry="37.6891" fill="#FCFCFD"/>
<path fill-rule="evenodd" clip-rule="evenodd" d="M577.098 401.628C573.968 404.747 568.894 404.747 565.764 401.628L523.277 359.29L543.85 338.79L586.337 381.128C589.467 384.246 589.467 389.303 586.337 392.422L577.098 401.628Z" fill="#1D343F"/>
<path d="M446.799 340.05C457.237 350.451 471.122 356.179 485.886 356.179C500.651 356.179 514.535 350.452 524.973 340.051C535.411 329.65 541.159 315.814 541.158 301.102C541.158 286.389 535.41 272.553 524.972 262.152L511.94 275.138C518.621 281.795 522.752 290.975 522.752 301.101C522.752 310.91 518.923 320.142 511.959 327.082C504.994 334.022 495.738 337.846 485.886 337.837C475.723 337.837 466.502 333.712 459.831 327.064L446.808 340.041L446.799 340.05Z" fill="#1D343F"/>
<path d="M524.972 262.152C514.534 251.75 500.649 246.023 485.884 246.022C471.12 246.022 457.244 251.74 446.798 262.15C436.36 272.552 430.612 286.387 430.612 301.1C430.613 315.812 436.361 329.648 446.799 340.05L459.831 327.064C453.15 320.407 449.019 311.227 449.019 301.1C449.019 291.292 452.847 282.059 459.812 275.119C466.777 268.179 476.033 264.355 485.885 264.364C496.047 264.364 505.269 268.49 511.94 275.138L524.963 262.161L524.972 262.152Z" fill="#132730"/>
<path d="M456.437 336.677C460.034 333.094 461.549 328.793 459.822 327.073C458.095 325.352 453.78 326.862 450.183 330.445C446.587 334.029 445.072 338.329 446.799 340.05C448.526 341.771 452.841 340.261 456.437 336.677Z" fill="#1D343F"/>
<path d="M521.588 271.756C525.184 268.173 526.699 263.873 524.972 262.152C523.245 260.431 518.93 261.941 515.334 265.524C511.738 269.108 510.222 273.408 511.949 275.129C513.676 276.85 517.992 275.34 521.588 271.756Z" fill="#1D343F"/>
</g>
<defs>
<clipPath id="clip0_403_17002">
<rect width="439.193" height="300" fill="white" transform="translate(151 109)"/>
</clipPath>
</defs>
</svg>
