<svg width="741" height="519" viewBox="0 0 741 519" fill="none" xmlns="http://www.w3.org/2000/svg">
<path d="M133.221 196.804C133.221 180.64 146.317 167.536 162.472 167.536H469.612C485.767 167.536 498.863 180.64 498.863 196.804V262.658C498.863 278.822 485.767 291.926 469.612 291.926H162.472C146.317 291.926 133.221 278.822 133.221 262.658V196.804Z" fill="#3E5163"/>
<path d="M184.41 213.267C184.41 208.216 188.503 204.121 193.551 204.121H438.531C443.58 204.121 447.673 208.216 447.673 213.267V213.267C447.673 218.318 443.58 222.413 438.531 222.413H193.551C188.503 222.413 184.41 218.318 184.41 213.267V213.267Z" fill="#132730"/>
<path d="M184.41 246.195C184.41 241.144 188.503 237.049 193.551 237.049H358.09C363.139 237.049 367.231 241.144 367.231 246.195V246.195C367.231 251.247 363.139 255.342 358.09 255.342H193.551C188.503 255.342 184.41 251.247 184.41 246.195V246.195Z" fill="#132730"/>
<path d="M217.318 171.195C217.318 205.545 189.489 233.39 155.159 233.39C120.83 233.39 93 205.545 93 171.195C93 136.846 120.83 109 155.159 109C189.489 109 217.318 136.846 217.318 171.195Z" fill="#1D343F"/>
<path d="M168.455 147.247C171.392 144.308 176.155 144.308 179.092 147.247V147.247C182.029 150.186 182.029 154.951 179.092 157.89L141.863 195.141C138.926 198.08 134.163 198.08 131.226 195.141V195.141C128.289 192.202 128.289 187.437 131.226 184.498L168.455 147.247Z" fill="#3E5163"/>
<path d="M179.095 184.498C182.032 187.437 182.032 192.202 179.095 195.141V195.141C176.157 198.08 171.395 198.08 168.458 195.141L131.229 157.89C128.292 154.951 128.292 150.186 131.229 147.247V147.247C134.166 144.308 138.928 144.308 141.866 147.247L179.095 184.498Z" fill="#3E5163"/>
<path fill-rule="evenodd" clip-rule="evenodd" d="M552.978 331.995L520.018 299.016L538.855 280.168L571.815 313.147L552.978 331.995Z" fill="#132730"/>
<path opacity="0.7" d="M546.657 249.071C546.657 280.967 520.815 306.824 488.938 306.824C457.061 306.824 431.219 280.967 431.219 249.071C431.219 217.175 457.061 191.318 488.938 191.318C520.815 191.318 546.657 217.175 546.657 249.071Z" fill="#FCFCFD"/>
<path fill-rule="evenodd" clip-rule="evenodd" d="M635.84 396.057C627.171 404.731 613.115 404.731 604.445 396.057L546.656 338.235L578.051 306.821L635.84 364.644C644.51 373.318 644.51 387.382 635.84 396.057Z" fill="#1D343F"/>
<path d="M429.943 308.753C445.873 324.692 467.062 333.468 489.594 333.469C512.125 333.469 533.314 324.693 549.243 308.755C565.172 292.817 573.943 271.616 573.942 249.071C573.942 226.527 565.17 205.325 549.241 189.386L529.353 209.285C539.548 219.486 545.852 233.553 545.853 249.071C545.853 264.1 540.01 278.248 529.382 288.882C518.754 299.517 504.627 305.377 489.593 305.363C474.084 305.363 460.012 299.041 449.831 288.854L429.957 308.739L429.943 308.753Z" fill="#3E5163"/>
<path d="M549.241 189.386C533.312 173.448 512.122 164.671 489.591 164.67C467.06 164.67 445.884 173.432 429.942 189.384C414.013 205.322 405.242 226.524 405.242 249.068C405.243 271.612 414.014 292.814 429.944 308.753L449.831 288.854C439.636 278.653 433.332 264.586 433.332 249.068C433.332 234.039 439.174 219.891 449.803 209.257C460.431 198.622 474.557 192.763 489.591 192.776C505.1 192.777 519.172 199.098 529.354 209.285L549.228 189.4L549.241 189.386Z" fill="#1D343F"/>
<path d="M444.653 303.585C450.141 298.094 452.453 291.505 449.818 288.868C447.182 286.231 440.597 288.545 435.109 294.036C429.621 299.527 427.308 306.116 429.944 308.753C432.579 311.39 439.165 309.077 444.653 303.585Z" fill="#132730"/>
<path d="M544.077 204.103C549.565 198.611 551.877 192.022 549.242 189.385C546.606 186.748 540.021 189.062 534.533 194.553C529.045 200.044 526.732 206.633 529.368 209.27C532.003 211.907 538.589 209.594 544.077 204.103Z" fill="#132730"/>
</svg>
